<svg width="285" height="356" viewBox="0 0 285 356" fill="none" xmlns="http://www.w3.org/2000/svg">
<path d="M104.632 244.404C102.37 242.015 99.4396 240.167 95.9034 238.861C92.3673 237.555 88.0347 236.886 82.9375 236.886C78.2227 236.886 73.6989 237.523 69.3026 238.797C64.9063 240.072 60.8923 241.601 57.2606 243.353V239.53C57.2606 238.766 56.8783 238.383 56.1137 238.383H45.346C44.5814 238.383 44.1991 238.766 44.1991 239.53V284.194C44.1991 289.45 42.8293 293.241 40.0895 295.599C37.3498 297.956 33.7818 299.135 29.3855 299.135C27.6015 299.135 25.8175 298.88 23.9379 298.37C22.0902 297.861 20.4018 297.001 18.9045 295.758C17.4072 294.516 16.1647 292.891 15.209 290.852C14.2533 288.813 13.7754 286.297 13.7754 283.27C13.7754 279.798 14.317 276.612 15.4639 273.713C16.5789 270.814 17.7576 268.297 19 266.131C19.1593 265.812 19.223 265.526 19.1593 265.271C19.1275 264.984 18.9045 264.793 18.5222 264.634L9.15615 260.938C8.39157 260.397 7.81814 260.46 7.404 261.161C5.49256 264.156 3.86784 267.756 2.52984 271.929C1.22369 276.102 0.554688 280.244 0.554688 284.417C0.554688 288.877 1.25555 292.764 2.68912 296.109C4.1227 299.422 6.09785 302.193 8.64643 304.391C11.195 306.59 14.1896 308.214 17.5983 309.298C21.0389 310.381 24.7981 310.922 28.8758 310.922C36.9675 310.922 43.5938 308.915 48.7228 304.901C53.8519 300.887 56.6553 294.834 57.1013 286.743C58.8853 286.806 60.6375 286.87 62.4215 286.902C64.2055 286.934 65.9895 286.966 67.8691 286.966H87.079C91.4753 286.966 95.2026 286.711 98.229 286.169C101.287 285.628 103.74 284.576 105.62 282.983C107.499 281.422 108.901 279.161 109.793 276.23C110.685 273.299 111.131 269.412 111.131 264.538C111.131 260.365 110.621 256.574 109.57 253.133C108.519 249.693 106.862 246.794 104.6 244.404H104.632ZM96.9229 270.464C96.5406 271.993 95.776 273.14 94.661 273.872C93.546 274.605 91.9531 275.051 89.9143 275.21C87.8754 275.37 85.2313 275.433 81.9818 275.433H57.2287V254.694C60.4782 253.165 64.1736 251.731 68.3469 250.425C72.5202 249.119 76.7572 248.482 81.058 248.482C84.3074 248.482 86.9516 248.832 89.0541 249.533C91.1248 250.234 92.8133 251.222 94.0876 252.528C95.3619 253.834 96.2539 255.459 96.7317 257.37C97.2414 259.282 97.4963 261.48 97.4963 263.933C97.4963 266.768 97.3052 268.966 96.9229 270.495V270.464Z" fill="white"/>
<path d="M76.1205 227.392H87.2068C87.9714 227.392 88.3537 227.01 88.3537 226.214V216.179C88.3537 215.414 87.9714 215 87.2068 215H76.1205C75.3559 215 74.9736 215.382 74.9736 216.179V226.214C74.9736 226.978 75.3559 227.392 76.1205 227.392Z" fill="white"/>
<path d="M163.664 242.652C161.593 240.645 159.076 239.18 156.177 238.256C153.278 237.332 150.092 236.886 146.62 236.886C143.466 236.886 140.44 237.364 137.572 238.32C134.705 239.275 132.189 240.836 129.959 242.939C127.76 245.073 126.008 247.813 124.734 251.158C123.46 254.503 122.823 258.549 122.823 263.264C122.823 267.66 123.332 271.356 124.384 274.35C125.435 277.345 126.9 279.798 128.844 281.709C130.755 283.589 133.144 284.959 135.948 285.755C138.751 286.583 141.969 286.966 145.6 286.966H157.292C157.292 289.514 157.037 291.553 156.527 293.082C156.018 294.611 155.317 295.822 154.393 296.682C153.469 297.542 152.354 298.084 151.048 298.37C149.742 298.657 148.308 298.785 146.779 298.785H133.24C132.475 298.785 132.093 299.167 132.093 299.931V309.202C132.093 309.967 132.475 310.349 133.24 310.349H148.85C155.795 310.349 161.115 308.692 164.779 305.379C168.442 302.066 170.258 296.778 170.258 289.514V262.436C170.258 257.721 169.685 253.77 168.506 250.521C167.359 247.271 165.734 244.659 163.632 242.652H163.664ZM157.324 275.401H147.034C143.339 275.401 140.503 274.509 138.528 272.757C136.553 271.005 135.565 267.692 135.565 262.85C135.565 258.485 136.521 254.981 138.464 252.369C140.376 249.756 143.116 248.45 146.684 248.45C150.252 248.45 153.087 249.629 154.775 251.954C156.464 254.28 157.324 257.721 157.324 262.276V275.401Z" fill="white"/>
<path d="M282.587 275.401H257.484C256.878 275.178 256.05 274.732 254.999 274.063C253.947 273.426 252.96 272.502 252.004 271.356C251.048 270.209 250.188 268.807 249.456 267.15C248.723 265.494 248.34 263.519 248.34 261.225C248.34 257.306 249.392 254.184 251.526 251.891C253.661 249.597 256.687 248.45 260.606 248.45C265.384 248.45 269.462 250.298 272.871 253.993C273.412 254.599 273.954 254.662 274.495 254.121L280.739 247.654C281.345 247.208 281.472 246.634 281.09 246.029C279.083 243.417 276.311 241.219 272.775 239.498C269.239 237.778 264.906 236.886 259.809 236.886C255.094 236.886 251.144 237.619 247.958 239.084C244.741 240.55 242.192 242.397 240.217 244.691C238.242 246.953 236.84 249.501 235.98 252.305C235.12 255.108 234.706 257.848 234.706 260.556C234.706 263.933 235.215 266.832 236.203 269.189C237.19 271.579 238.465 273.649 240.026 275.401H228.812H214.954C214.954 275.401 214.89 275.401 214.859 275.401C214.859 275.401 214.859 275.401 214.827 275.401H212.852C209.921 275.401 207.595 274.796 205.843 273.554C204.123 272.311 203.231 270.559 203.231 268.265V240.135C203.231 239.371 202.848 238.989 202.084 238.989H191.412C190.647 238.989 190.265 239.371 190.265 240.135V281.422C190.265 284.194 190.201 286.647 190.074 288.781C189.946 290.884 189.596 292.7 189.022 294.229C188.449 295.726 187.525 296.873 186.314 297.638C185.072 298.402 183.352 298.785 181.122 298.785H178.573C177.809 298.785 177.426 299.167 177.426 299.931V309.17C177.426 309.935 177.809 310.317 178.573 310.317H182.842C186.697 310.317 189.914 309.807 192.527 308.756C195.139 307.705 197.21 306.144 198.771 304.073C200.332 301.97 201.479 299.39 202.148 296.236C202.817 293.114 203.167 289.45 203.167 285.277V283.079C204.473 284.704 206.066 285.755 207.977 286.233C209.857 286.711 212.119 286.934 214.731 286.934C214.731 286.934 214.731 286.934 214.763 286.934C214.763 286.934 214.827 286.934 214.859 286.934H228.748H282.523C283.288 286.934 283.67 286.551 283.67 285.755V276.516C283.67 275.752 283.288 275.338 282.523 275.338L282.587 275.401Z" fill="white"/>
<path d="M22.9822 338.638C22.568 338.065 21.9946 337.619 21.2937 337.268C20.5929 336.918 19.669 336.758 18.554 336.758C17.5983 336.758 16.77 336.95 16.101 337.3C15.432 337.682 14.8904 338.128 14.4126 338.702C14.317 338.829 14.3488 338.925 14.4763 339.052L15.5276 339.912C15.5276 339.912 15.7506 340.008 15.878 339.912C16.2284 339.53 16.6426 339.211 17.0886 338.988C17.5346 338.765 18.0443 338.638 18.5859 338.638C19.223 338.638 19.7327 338.734 20.1469 338.957C20.561 339.148 20.9114 339.434 21.1344 339.817C21.3893 340.199 21.5804 340.645 21.676 341.187C21.8034 341.696 21.8353 342.27 21.8353 342.907C21.8353 343.353 21.8353 343.703 21.7716 343.99C21.7079 344.277 21.6123 344.532 21.4849 344.691C21.3256 344.882 21.1344 344.978 20.8477 345.073C20.561 345.137 20.2106 345.169 19.7646 345.169H12.9153H12.6604C11.9914 345.169 11.4817 345.041 11.0675 344.755C10.6853 344.468 10.4623 344.054 10.4623 343.512V341.027C10.4623 339.562 10.08 338.447 9.28354 337.778C8.51897 337.077 7.53139 336.727 6.28896 336.727H2.84838C2.84838 336.727 2.59352 336.79 2.59352 336.981V338.383C2.59352 338.383 2.68909 338.638 2.84838 338.638H5.65182C7.49954 338.638 8.39154 339.466 8.39154 341.091V343.034C8.39154 343.448 8.39154 343.799 8.32782 344.086C8.29597 344.372 8.16854 344.563 8.04111 344.755C7.88182 344.914 7.69068 345.041 7.40396 345.105C7.14911 345.169 6.76682 345.201 6.32082 345.201H1.73337C1.57409 345.201 1.47852 345.296 1.47852 345.455V346.857C1.47852 347.016 1.57409 347.112 1.73337 347.112H7.08539C7.84997 347.112 8.48711 347.016 8.96497 346.825C9.44283 346.634 9.82512 346.252 10.1118 345.742C10.2711 346.22 10.5897 346.57 11.0357 346.793C11.4817 347.016 11.9596 347.144 12.5011 347.144H13.0108H20.6247C21.23 347.144 21.7397 347.08 22.1857 346.953C22.6317 346.825 22.9822 346.602 23.2689 346.252C23.5556 345.933 23.7467 345.519 23.906 344.978C24.0334 344.436 24.0972 343.767 24.0972 342.971C24.0972 342.174 24.0016 341.41 23.8423 340.677C23.683 339.944 23.3963 339.275 22.9822 338.734V338.638Z" fill="white"/>
<path d="M27.3147 330.642H28.8757C28.8757 330.642 29.1305 330.737 29.1305 330.897V346.825C29.1305 346.825 29.035 347.08 28.8757 347.08H27.3147C27.3147 347.08 27.0598 346.985 27.0598 346.825V330.897C27.0598 330.897 27.1554 330.642 27.3147 330.642Z" fill="white"/>
<path d="M36.8085 336.726C36.1714 336.726 35.5661 336.822 34.9926 337.045C34.4192 337.268 33.9414 337.587 33.4954 338.033C33.0812 338.479 32.7308 339.052 32.4759 339.721C32.2529 340.39 32.1255 341.218 32.1255 342.11C32.1255 343.002 32.2211 343.799 32.4441 344.436C32.6671 345.073 32.9538 345.551 33.3679 345.933C33.7821 346.315 34.2599 346.602 34.8334 346.761C35.4068 346.921 36.0439 347.016 36.7448 347.016H39.3252V347.653C39.3252 348.099 39.2615 348.482 39.1659 348.768C39.0385 349.055 38.9111 349.31 38.6881 349.469C38.4651 349.629 38.2421 349.756 37.9872 349.82C37.7005 349.883 37.4138 349.915 37.0952 349.915H34.1962C34.1962 349.915 33.9414 350.011 33.9414 350.17V351.572C33.9414 351.731 34.0369 351.827 34.1962 351.827H37.1908C37.8279 351.827 38.4014 351.731 38.9111 351.572C39.4208 351.413 39.8668 351.158 40.2172 350.839C40.5677 350.489 40.8544 350.075 41.0774 349.533C41.2685 348.991 41.396 348.354 41.396 347.59V341.951C41.396 340.103 40.9818 338.765 40.1854 337.937C39.3889 337.109 38.2739 336.695 36.8404 336.695L36.8085 336.726ZM39.3571 345.169H36.9041C36.0121 345.169 35.3112 344.946 34.8652 344.531C34.4192 344.085 34.1644 343.321 34.1644 342.174C34.1644 341.123 34.3874 340.263 34.8652 339.625C35.3431 338.988 35.9802 338.67 36.8085 338.67C37.7005 338.67 38.3695 338.956 38.7518 339.562C39.1341 340.167 39.3571 340.995 39.3571 342.047V345.2V345.169Z" fill="white"/>
<path d="M57.133 336.408H55.5083C55.3675 336.408 55.2534 336.522 55.2534 336.663V338.415C55.2534 338.556 55.3675 338.67 55.5083 338.67H57.133C57.2738 338.67 57.3879 338.556 57.3879 338.415V336.663C57.3879 336.522 57.2738 336.408 57.133 336.408Z" fill="white"/>
<path d="M59.3946 339.243C59.2353 339.243 59.1397 339.307 59.1397 339.498V346.538C59.1397 347.717 58.8211 348.577 58.1521 349.119C57.4831 349.66 56.6549 349.915 55.6354 349.915C55.2213 349.915 54.7753 349.852 54.3611 349.756C53.9151 349.66 53.5328 349.469 53.1506 349.183C52.7683 348.928 52.4815 348.545 52.2585 348.099C52.0355 347.653 51.9081 347.08 51.9081 346.379C51.9081 345.646 52.0355 344.977 52.2904 344.308C52.5453 343.639 52.832 343.098 53.1187 342.652C53.1824 342.524 53.1824 342.429 53.055 342.333L51.717 341.6C51.5577 341.505 51.4303 341.505 51.3665 341.6C50.9524 342.206 50.5701 342.938 50.2515 343.799C49.933 344.691 49.7737 345.583 49.7737 346.538C49.7737 347.399 49.9011 348.131 50.1878 348.8C50.4745 349.437 50.825 350.011 51.3347 350.457C51.8125 350.903 52.4178 351.253 53.1187 351.476C53.8196 351.699 54.616 351.827 55.4761 351.827C57.3238 351.827 58.7256 351.349 59.6813 350.425C60.637 349.501 61.1467 348.195 61.1467 346.538V339.466C61.1467 339.307 61.083 339.211 60.9237 339.211H59.3946V339.243Z" fill="white"/>
<path d="M88.9584 336.726C87.5248 336.726 86.4098 337.141 85.5816 337.969C84.7533 338.797 84.3391 340.135 84.3391 341.983V342.461C84.3391 342.461 84.3391 342.779 84.3391 342.939C84.3391 343.353 84.3073 343.703 84.2117 343.99C84.1161 344.277 84.0205 344.5 83.8613 344.659C83.702 344.818 83.5427 344.946 83.3834 345.009C83.1923 345.073 83.033 345.105 82.8418 345.105H81.6313H81.3764C80.7393 345.105 80.2295 344.977 79.8472 344.754C79.465 344.5 79.242 344.149 79.2101 343.639C79.2101 343.512 79.2101 343.385 79.2101 343.257C79.2101 343.13 79.2101 343.002 79.2101 342.875V341.441C79.2101 339.976 78.8278 338.861 78.0632 338.192C77.2987 337.491 76.3111 337.141 75.0687 337.141H72.9342L77.2668 332.043C77.2668 332.043 77.2987 331.789 77.1712 331.693L76.0244 330.737C76.0244 330.737 75.8014 330.705 75.7058 330.801L70.4175 337.013C70.4175 337.013 70.3538 337.109 70.2901 337.172C70.2264 337.236 70.1945 337.332 70.1945 337.395V338.733C70.1945 338.733 70.2901 338.988 70.4494 338.988H74.3359C76.1837 338.988 77.0757 339.817 77.0757 341.441V342.939C77.0757 343.353 77.0757 343.703 77.012 343.99C76.9482 344.277 76.8527 344.468 76.7252 344.659C76.5659 344.818 76.3748 344.946 76.0881 345.009C75.8014 345.073 75.4509 345.105 75.0049 345.105H68.6654H67.6141C67.1999 345.105 66.9132 345.009 66.7221 344.818C66.5309 344.627 66.4353 344.308 66.4353 343.831V330.801C66.4353 330.801 66.3398 330.546 66.1805 330.546H64.6513C64.4921 330.546 64.3965 330.642 64.3965 330.801V343.926C64.3965 344.977 64.6195 345.742 65.0336 346.22C65.4796 346.698 66.1805 346.953 67.1999 346.953H68.6335H75.7377C76.5022 346.953 77.1075 346.857 77.5854 346.666C78.0632 346.475 78.4455 346.124 78.7322 345.583C78.9234 346.029 79.2101 346.379 79.6561 346.602C80.1021 346.825 80.58 346.953 81.1215 346.953H81.6313H82.6507C83.0967 346.953 83.5745 346.889 84.1161 346.761C84.6577 346.634 85.0718 346.315 85.4223 345.774C85.8364 346.252 86.3143 346.57 86.8877 346.793C87.4611 347.016 88.1301 347.112 88.8947 347.112C89.5956 347.112 90.2327 347.016 90.8061 346.825C91.3796 346.634 91.8574 346.315 92.2716 345.901C92.6539 345.487 92.9724 344.946 93.1954 344.277C93.4184 343.608 93.514 342.843 93.514 341.919C93.514 340.071 93.0999 338.733 92.2716 337.905C91.4433 337.077 90.3283 336.663 88.8947 336.663L88.9584 336.726ZM90.9336 344.531C90.5194 345.073 89.8823 345.328 88.9584 345.328C88.0346 345.328 87.3974 345.073 86.9833 344.531C86.5691 343.99 86.378 343.162 86.378 342.015C86.378 340.963 86.5691 340.135 86.9833 339.53C87.3974 338.925 88.0664 338.638 88.9584 338.638C89.8504 338.638 90.5194 338.925 90.9336 339.53C91.3477 340.135 91.5389 340.963 91.5389 342.015C91.5389 343.162 91.3159 344.022 90.9336 344.531Z" fill="white"/>
<path d="M108.997 353.77H107.372C107.231 353.77 107.117 353.884 107.117 354.025V355.745C107.117 355.886 107.231 356 107.372 356H108.997C109.137 356 109.251 355.886 109.251 355.745V354.025C109.251 353.884 109.137 353.77 108.997 353.77Z" fill="white"/>
<path d="M111.928 353.77H110.303C110.162 353.77 110.048 353.884 110.048 354.025V355.745C110.048 355.886 110.162 356 110.303 356H111.928C112.069 356 112.183 355.886 112.183 355.745V354.025C112.183 353.884 112.069 353.77 111.928 353.77Z" fill="white"/>
<path d="M126.518 332.553H124.893C124.752 332.553 124.638 332.667 124.638 332.808V334.528C124.638 334.669 124.752 334.783 124.893 334.783H126.518C126.659 334.783 126.773 334.669 126.773 334.528V332.808C126.773 332.667 126.659 332.553 126.518 332.553Z" fill="white"/>
<path d="M125.722 336.727C125.053 336.727 124.448 336.822 123.906 337.013C123.364 337.204 122.855 337.523 122.441 337.969C122.026 338.383 121.708 338.925 121.453 339.626C121.23 340.295 121.103 341.091 121.103 342.015C121.103 343.321 121.326 344.404 121.803 345.169H119.064C119.064 345.169 119.032 345.169 119 345.169C118.968 345.169 118.936 345.169 118.904 345.169H116.961C116.483 345.169 116.037 345.105 115.591 345.009C115.145 344.914 114.699 344.755 114.221 344.595C113.775 344.436 113.298 344.245 112.82 344.054C112.342 343.863 111.832 343.671 111.322 343.448C111.163 343.417 111.068 343.448 111.036 343.608L110.494 345.073C110.494 345.073 110.494 345.328 110.653 345.36C111.482 345.678 112.214 345.933 112.852 346.156C113.489 346.379 113.998 346.602 114.444 346.825C114.859 347.048 115.177 347.271 115.4 347.526C115.623 347.781 115.719 348.1 115.719 348.45C115.719 348.864 115.528 349.183 115.145 349.501C114.763 349.82 114.094 349.947 113.138 349.947H107.786C107.245 349.947 106.767 349.884 106.289 349.756C105.811 349.629 105.397 349.438 105.015 349.183C104.632 348.896 104.346 348.546 104.123 348.1C103.9 347.654 103.804 347.08 103.804 346.411C103.804 345.678 103.932 345.009 104.186 344.34C104.441 343.671 104.728 343.13 105.015 342.684C105.11 342.556 105.078 342.461 104.951 342.365L103.613 341.633C103.454 341.537 103.326 341.537 103.263 341.633C102.848 342.238 102.466 342.971 102.148 343.831C101.829 344.691 101.67 345.615 101.67 346.57C101.67 348.227 102.179 349.501 103.135 350.457C104.123 351.381 105.556 351.859 107.436 351.859H113.075C113.903 351.859 114.604 351.763 115.209 351.572C115.782 351.381 116.26 351.126 116.611 350.839C116.961 350.521 117.216 350.202 117.375 349.82C117.535 349.438 117.598 349.055 117.598 348.673C117.598 348.323 117.535 348.004 117.439 347.685C117.312 347.399 117.216 347.176 117.152 347.048H118.873C118.873 347.048 118.904 347.048 118.936 347.048C118.968 347.048 119 347.048 119.032 347.048H125.658C126.359 347.048 126.996 346.953 127.57 346.762C128.143 346.57 128.621 346.284 129.035 345.901C129.417 345.519 129.736 344.978 129.959 344.34C130.182 343.703 130.277 342.907 130.277 341.983C130.277 340.135 129.863 338.797 129.035 337.969C128.207 337.141 127.092 336.727 125.658 336.727H125.722ZM127.697 344.436C127.283 344.914 126.646 345.137 125.722 345.137C124.798 345.137 124.161 344.882 123.747 344.372C123.333 343.863 123.141 343.034 123.141 341.824C123.141 340.836 123.364 340.04 123.779 339.466C124.225 338.893 124.862 338.606 125.722 338.606C126.614 338.606 127.283 338.893 127.697 339.498C128.111 340.103 128.302 340.932 128.302 341.983C128.302 343.13 128.111 343.958 127.697 344.436Z" fill="white"/>
<path d="M149.646 333.955H148.021C147.881 333.955 147.767 334.069 147.767 334.21V335.962C147.767 336.103 147.881 336.217 148.021 336.217H149.646C149.787 336.217 149.901 336.103 149.901 335.962V334.21C149.901 334.069 149.787 333.955 149.646 333.955Z" fill="white"/>
<path d="M146.684 333.955H145.059C144.918 333.955 144.804 334.069 144.804 334.21V335.962C144.804 336.103 144.918 336.217 145.059 336.217H146.684C146.825 336.217 146.939 336.103 146.939 335.962V334.21C146.939 334.069 146.825 333.955 146.684 333.955Z" fill="white"/>
<path d="M154.17 337.173C154.011 337.173 153.916 337.268 153.916 337.427V343.894C153.916 344.372 153.82 344.723 153.629 344.914C153.438 345.105 153.151 345.201 152.737 345.201H141.81C141.396 345.201 141.109 345.105 140.918 344.914C140.727 344.723 140.631 344.404 140.631 343.894V338.988C140.631 338.829 140.567 338.734 140.408 338.734H138.879C138.72 338.734 138.624 338.829 138.624 338.988V344.022C138.624 345.073 138.847 345.838 139.261 346.316C139.707 346.793 140.408 347.048 141.427 347.048H153.055C154.107 347.048 154.839 346.793 155.285 346.316C155.731 345.838 155.922 345.041 155.922 344.022V337.427C155.922 337.268 155.827 337.173 155.668 337.173H154.139H154.17Z" fill="white"/>
<path d="M170.577 336.726C169.143 336.726 168.028 337.141 167.2 337.969C166.371 338.797 165.957 340.135 165.957 341.983V342.461C165.957 342.461 165.957 342.779 165.957 342.939C165.957 343.353 165.925 343.703 165.83 343.99C165.734 344.277 165.639 344.5 165.479 344.659C165.32 344.818 165.161 344.946 165.001 345.009C164.81 345.073 164.651 345.105 164.46 345.105H163.249H162.198C161.784 345.105 161.497 345.009 161.306 344.818C161.115 344.627 161.019 344.308 161.019 343.831V330.801C161.019 330.801 160.924 330.546 160.764 330.546H159.235C159.076 330.546 158.98 330.642 158.98 330.801V343.926C158.98 344.977 159.203 345.742 159.618 346.22C160.064 346.698 160.764 346.953 161.784 346.953H163.217H164.269C164.715 346.953 165.193 346.889 165.734 346.761C166.276 346.634 166.69 346.315 167.04 345.774C167.454 346.252 167.932 346.57 168.506 346.793C169.079 347.016 169.748 347.112 170.513 347.112C171.214 347.112 171.851 347.016 172.424 346.825C172.998 346.634 173.476 346.315 173.89 345.901C174.272 345.487 174.591 344.946 174.814 344.277C175.037 343.608 175.132 342.843 175.132 341.919C175.132 340.071 174.718 338.733 173.89 337.905C173.061 337.077 171.946 336.663 170.513 336.663L170.577 336.726ZM172.552 344.531C172.138 345.073 171.5 345.328 170.577 345.328C169.653 345.328 169.016 345.073 168.601 344.531C168.187 343.99 167.996 343.162 167.996 342.015C167.996 340.963 168.187 340.135 168.601 339.53C169.016 338.925 169.685 338.638 170.577 338.638C171.469 338.638 172.138 338.925 172.552 339.53C172.966 340.135 173.157 340.963 173.157 342.015C173.157 343.162 172.934 344.022 172.552 344.531Z" fill="white"/>
<path d="M213.935 332.553H212.31C212.169 332.553 212.055 332.667 212.055 332.808V334.528C212.055 334.669 212.169 334.783 212.31 334.783H213.935C214.076 334.783 214.19 334.669 214.19 334.528V332.808C214.19 332.667 214.076 332.553 213.935 332.553Z" fill="white"/>
<path d="M223.651 330.642C223.492 330.642 223.396 330.737 223.396 330.897V343.894C223.396 344.372 223.301 344.723 223.11 344.914C222.918 345.105 222.632 345.201 222.218 345.201H220.72H220.465C219.828 345.201 219.319 345.073 218.936 344.818C218.554 344.563 218.331 344.181 218.299 343.703C218.299 343.576 218.299 343.448 218.299 343.321C218.299 343.194 218.299 343.066 218.299 342.907C218.299 342.11 218.204 341.346 218.044 340.613C217.885 339.88 217.598 339.211 217.184 338.67C216.77 338.096 216.197 337.65 215.496 337.3C214.795 336.95 213.871 336.79 212.756 336.79C211.8 336.79 210.972 336.981 210.303 337.332C209.634 337.714 209.061 338.16 208.615 338.734C208.519 338.861 208.551 338.957 208.678 339.084L209.73 339.944C209.73 339.944 209.953 340.04 210.08 339.944C210.43 339.562 210.845 339.243 211.291 339.02C211.737 338.797 212.246 338.67 212.788 338.67C213.425 338.67 213.935 338.765 214.349 338.988C214.763 339.18 215.113 339.466 215.336 339.849C215.591 340.231 215.782 340.677 215.878 341.187C216.005 341.696 216.037 342.302 216.037 342.907C216.037 343.353 216.037 343.703 215.974 343.99C215.91 344.277 215.814 344.532 215.687 344.691C215.528 344.882 215.336 344.978 215.05 345.073C214.763 345.137 214.413 345.169 213.967 345.169H207.117H206.862C206.193 345.169 205.684 345.041 205.27 344.755C204.887 344.468 204.696 344.054 204.696 343.512C204.696 343.385 204.696 343.225 204.696 343.034C204.696 342.843 204.696 342.652 204.696 342.461C204.696 341.696 204.601 340.964 204.441 340.263C204.25 339.562 203.963 338.957 203.517 338.447C203.071 337.905 202.466 337.523 201.733 337.204C201.001 336.886 200.045 336.758 198.93 336.758C197.91 336.758 196.923 336.918 195.967 337.204C195.012 337.491 194.119 337.842 193.323 338.288V337.459C193.323 337.3 193.227 337.204 193.068 337.204H191.539C191.38 337.204 191.284 337.3 191.284 337.459V343.926C191.284 344.404 191.189 344.755 190.997 344.914C190.806 345.105 190.52 345.201 190.105 345.201H188.576H186.92V342.047C186.92 340.199 186.506 338.861 185.709 338.033C184.913 337.204 183.798 336.79 182.364 336.79C181.727 336.79 181.154 336.886 180.58 337.109C180.007 337.332 179.529 337.65 179.083 338.096C178.669 338.542 178.318 339.116 178.063 339.785C177.809 340.454 177.681 341.282 177.681 342.174C177.681 343.066 177.777 343.863 178 344.5C178.191 345.137 178.509 345.615 178.924 345.997C179.338 346.379 179.816 346.666 180.389 346.825C180.962 346.985 181.6 347.08 182.3 347.08H184.881V347.717C184.881 348.163 184.817 348.546 184.722 348.832C184.594 349.119 184.467 349.374 184.244 349.533C184.021 349.692 183.798 349.82 183.543 349.884C183.256 349.947 182.969 349.979 182.651 349.979H179.752C179.593 349.979 179.497 350.075 179.497 350.234V351.636C179.497 351.795 179.593 351.891 179.752 351.891H182.746C183.384 351.891 183.957 351.795 184.467 351.636C184.976 351.476 185.422 351.222 185.773 350.903C186.123 350.553 186.41 350.138 186.633 349.597C186.824 349.055 186.952 348.418 186.952 347.654V347.08H188.608H190.488C191.157 347.08 191.698 346.985 192.112 346.762C192.272 346.985 192.558 347.08 192.941 347.08H201.064C201.861 347.08 202.498 346.953 203.008 346.73C203.517 346.507 203.9 346.124 204.186 345.583C204.378 346.061 204.664 346.443 205.11 346.698C205.556 346.953 206.066 347.08 206.608 347.08H207.117H214.731C215.464 347.08 216.101 346.985 216.579 346.762C217.057 346.539 217.439 346.188 217.726 345.678C217.885 346.156 218.204 346.507 218.65 346.73C219.096 346.953 219.573 347.08 220.115 347.08H220.625H222.504C223.524 347.08 224.256 346.825 224.671 346.347C225.117 345.87 225.308 345.073 225.308 344.054V330.929C225.308 330.769 225.212 330.674 225.085 330.674H223.556L223.651 330.642ZM185.04 345.169H182.587C181.695 345.169 180.994 344.946 180.548 344.532C180.102 344.086 179.847 343.321 179.847 342.174C179.847 341.123 180.07 340.263 180.548 339.626C181.026 338.988 181.663 338.67 182.46 338.67C183.352 338.67 184.021 338.957 184.403 339.562C184.785 340.167 185.008 340.995 185.008 342.047V345.201L185.04 345.169ZM202.594 343.799C202.53 344.149 202.434 344.436 202.275 344.659C202.116 344.85 201.893 345.009 201.606 345.073C201.319 345.169 200.937 345.201 200.491 345.201H193.355C193.45 344.818 193.482 344.436 193.482 344.054V340.167C193.833 339.976 194.215 339.817 194.661 339.626C195.107 339.434 195.553 339.275 195.999 339.148C196.477 338.988 196.955 338.893 197.465 338.797C197.974 338.702 198.452 338.67 198.93 338.67C199.663 338.67 200.268 338.765 200.746 338.925C201.224 339.084 201.606 339.339 201.893 339.657C202.179 339.976 202.402 340.358 202.498 340.836C202.625 341.314 202.689 341.824 202.689 342.429C202.689 343.002 202.689 343.448 202.594 343.831V343.799Z" fill="white"/>
<path d="M229.067 330.642H230.628C230.628 330.642 230.883 330.737 230.883 330.897V346.825C230.883 346.825 230.787 347.08 230.628 347.08H229.067C229.067 347.08 228.812 346.985 228.812 346.825V330.897C228.812 330.897 228.908 330.642 229.067 330.642Z" fill="white"/>
<path d="M255.19 349.278H253.565C253.424 349.278 253.31 349.392 253.31 349.533V351.285C253.31 351.426 253.424 351.54 253.565 351.54H255.19C255.33 351.54 255.444 351.426 255.444 351.285V349.533C255.444 349.392 255.33 349.278 255.19 349.278Z" fill="white"/>
<path d="M258.153 349.278H256.528C256.387 349.278 256.273 349.392 256.273 349.533V351.285C256.273 351.426 256.387 351.54 256.528 351.54H258.153C258.293 351.54 258.407 351.426 258.407 351.285V349.533C258.407 349.392 258.293 349.278 258.153 349.278Z" fill="white"/>
<path d="M280.516 349.246H278.891C278.751 349.246 278.636 349.36 278.636 349.501V351.221C278.636 351.362 278.751 351.476 278.891 351.476H280.516C280.657 351.476 280.771 351.362 280.771 351.221V349.501C280.771 349.36 280.657 349.246 280.516 349.246Z" fill="white"/>
<path d="M284.499 340.581C284.339 339.848 284.053 339.179 283.638 338.638C283.224 338.096 282.651 337.618 281.95 337.268C281.249 336.918 280.325 336.758 279.21 336.758C278.255 336.758 277.426 336.949 276.757 337.3C276.088 337.682 275.515 338.128 275.069 338.702C274.973 338.829 275.005 338.925 275.133 339.052L276.184 339.912C276.184 339.912 276.439 340.008 276.534 339.912C276.885 339.53 277.299 339.211 277.745 338.988C278.191 338.765 278.701 338.638 279.242 338.638C279.879 338.638 280.389 338.733 280.803 338.956C281.217 339.179 281.568 339.434 281.791 339.817C282.046 340.199 282.237 340.645 282.332 341.155C282.46 341.664 282.492 342.27 282.492 342.875C282.492 343.321 282.492 343.671 282.428 343.958C282.364 344.245 282.3 344.5 282.141 344.659C281.982 344.85 281.791 344.946 281.504 345.041C281.249 345.105 280.867 345.137 280.421 345.137H273.603H272.903C272.552 345.137 272.202 344.977 271.883 344.691C271.565 344.404 271.405 343.831 271.405 343.002C271.405 342.843 271.405 342.684 271.437 342.493C271.437 342.333 271.437 342.142 271.437 341.951C271.437 340.103 271.023 338.765 270.195 337.937C269.366 337.109 268.251 336.695 266.818 336.695C265.384 336.695 264.269 337.109 263.441 337.937C262.613 338.765 262.199 340.103 262.199 341.951V342.429C262.199 342.429 262.199 342.747 262.199 342.907C262.199 343.321 262.167 343.671 262.071 343.958C261.976 344.245 261.88 344.468 261.721 344.627C261.561 344.786 261.402 344.914 261.243 344.977C261.052 345.041 260.892 345.073 260.701 345.073H259.491H259.204C258.535 345.073 258.025 344.946 257.611 344.659C257.229 344.372 257.038 343.99 257.038 343.416V337.3C257.038 337.141 256.942 337.045 256.783 337.045H255.254C255.254 337.045 254.999 337.141 254.999 337.3V343.767C254.999 344.245 254.903 344.595 254.712 344.786C254.521 344.977 254.234 345.073 253.82 345.073H252.164C252.164 345.073 252.132 345.073 252.068 345.073C252.036 345.073 252.004 345.073 251.972 345.073H248.436C248.277 345.073 248.118 345.073 247.927 345.041C247.735 345.041 247.576 344.977 247.385 344.946C247.704 344.723 247.99 344.468 248.341 344.149C248.659 343.831 248.946 343.48 249.201 343.098C249.456 342.716 249.647 342.301 249.806 341.855C249.965 341.409 250.061 340.932 250.061 340.39C250.061 339.243 249.647 338.319 248.819 337.65C247.99 336.981 246.716 336.631 244.996 336.631C244.454 336.631 243.913 336.663 243.435 336.758C242.925 336.822 242.479 336.949 242.065 337.077C241.651 337.204 241.3 337.364 240.982 337.491C240.663 337.65 240.408 337.778 240.217 337.873C240.058 337.969 239.962 338.128 239.962 338.351V339.817C239.962 339.817 239.962 339.976 240.026 340.04C240.058 340.103 240.153 340.199 240.313 340.294C240.663 340.549 241.013 340.804 241.364 341.091C241.714 341.346 242.033 341.664 242.32 342.015C242.606 342.365 242.861 342.779 243.084 343.225C243.307 343.703 243.466 344.245 243.594 344.882C243.116 344.977 242.606 345.105 242.065 345.264C241.523 345.423 241.045 345.615 240.599 345.901C240.153 346.188 239.771 346.538 239.484 346.984C239.198 347.43 239.038 348.004 239.038 348.705C239.038 349.82 239.389 350.616 240.058 351.062C240.727 351.54 241.714 351.763 243.02 351.763H245.505C245.665 351.763 245.76 351.667 245.76 351.508V350.106C245.76 350.106 245.665 349.852 245.505 349.852H243.18C242.383 349.852 241.842 349.756 241.555 349.533C241.268 349.342 241.109 349.055 241.109 348.641C241.109 348.227 241.236 347.908 241.523 347.685C241.81 347.43 242.128 347.239 242.574 347.08C242.989 346.921 243.466 346.761 243.976 346.634C244.486 346.507 244.996 346.347 245.442 346.156C245.856 346.443 246.334 346.634 246.875 346.73C247.417 346.857 247.895 346.889 248.373 346.889H251.972C251.972 346.889 252.004 346.889 252.068 346.889C252.1 346.889 252.132 346.889 252.164 346.889H254.171C255.445 346.889 256.273 346.475 256.687 345.646C256.91 346.061 257.197 346.379 257.579 346.602C257.962 346.825 258.408 346.921 258.917 346.921H259.459H260.478C260.924 346.921 261.402 346.857 261.944 346.73C262.485 346.602 262.899 346.284 263.25 345.742C263.664 346.22 264.142 346.538 264.715 346.761C265.289 346.984 265.958 347.08 266.722 347.08C267.487 347.08 268.124 346.984 268.697 346.761C269.271 346.538 269.781 346.22 270.163 345.742C270.322 345.997 270.513 346.22 270.736 346.347C270.959 346.507 271.182 346.602 271.437 346.698C271.692 346.761 271.947 346.825 272.202 346.857C272.457 346.857 272.711 346.889 272.934 346.889H273.444H281.058C281.663 346.889 282.173 346.825 282.619 346.666C283.065 346.538 283.415 346.315 283.702 345.965C283.989 345.646 284.18 345.232 284.339 344.691C284.467 344.149 284.53 343.48 284.53 342.684C284.53 341.887 284.435 341.123 284.276 340.39L284.499 340.581ZM246.525 343.576C246.238 343.831 245.951 344.022 245.697 344.181C245.442 343.034 244.996 342.015 244.358 341.186C243.753 340.358 243.02 339.689 242.192 339.243C242.383 339.116 242.734 338.988 243.275 338.861C243.817 338.702 244.454 338.638 245.187 338.638C245.601 338.638 245.983 338.638 246.334 338.733C246.684 338.797 247.003 338.893 247.258 339.052C247.512 339.211 247.735 339.402 247.863 339.657C248.022 339.912 248.086 340.231 248.086 340.645C248.086 341.059 247.99 341.409 247.863 341.76C247.704 342.11 247.512 342.461 247.289 342.747C247.066 343.034 246.78 343.321 246.493 343.576H246.525ZM268.889 344.531C268.474 345.073 267.837 345.328 266.913 345.328C265.99 345.328 265.352 345.073 264.938 344.531C264.524 343.99 264.333 343.162 264.333 342.015C264.333 340.963 264.524 340.135 264.938 339.53C265.352 338.925 266.021 338.638 266.913 338.638C267.805 338.638 268.474 338.925 268.889 339.53C269.303 340.135 269.494 340.963 269.494 342.015C269.494 343.162 269.271 344.022 268.889 344.531Z" fill="white"/>
<path d="M102.673 122.807C100.641 123.431 98.5201 123.847 96.6056 124.709C90.0671 127.681 84.3827 126.73 79.3169 121.619C74.84 117.132 70.3927 112.615 65.9453 108.098C59.878 101.917 59.8486 93.686 65.9453 87.5349C93.3069 59.8994 120.698 32.2936 148.089 4.65803C154.215 -1.52282 162.315 -1.55253 168.47 4.56888C173.006 9.08566 177.512 13.6321 181.989 18.2084C186.967 23.26 187.939 29.0546 184.935 35.5028C182.254 41.2082 183.197 47.3297 187.379 51.6087C191.591 55.9175 197.747 56.8981 203.49 54.1643C209.763 51.163 215.595 52.1436 220.484 57.0467C225.049 61.6229 229.614 66.1991 234.121 70.805C240.1 76.9264 240.129 85.1577 234.121 91.2494C206.73 118.944 179.309 146.61 151.859 174.245C145.762 180.396 137.574 180.337 131.478 174.186C127.001 169.699 122.554 165.212 118.077 160.695C113.011 155.584 112.039 149.849 115.102 143.252C119.549 133.683 113.099 123.105 102.702 122.778M102.82 111.099C104.705 111.367 106.59 111.486 108.446 111.902C124.615 115.676 132.891 132.94 125.823 148.125C124.998 149.938 125.204 151.156 126.618 152.523C131.006 156.832 135.307 161.23 139.636 165.598C141.374 167.351 142.051 167.381 143.76 165.687C171.062 138.17 198.336 110.624 225.609 83.1073C227.317 81.3838 227.317 80.7003 225.609 78.9471C221.368 74.668 217.126 70.389 212.885 66.1099C210.765 63.9704 210.647 63.9407 207.967 65.1888C197.128 70.2404 184.287 67.1797 177.1 57.6113C170.974 49.4098 170.061 40.4654 174.096 31.0455C175.245 28.3414 175.274 28.1928 173.183 26.0533C168.883 21.7148 164.612 17.406 160.312 13.0676C158.722 11.4926 158.015 11.4629 156.454 13.0378C129.063 40.6437 101.701 68.2792 74.3393 95.885C72.7783 97.4302 72.8078 98.1731 74.3688 99.748C78.8162 104.265 83.3224 108.722 87.7404 113.269C88.9774 114.517 90.126 114.695 91.6576 113.893C95.1624 112.11 98.8735 111.218 102.82 111.07" fill="white"/>
<path d="M155.576 90.1048C155.576 97.9648 155.576 105.825 155.576 113.714C155.576 116.315 154.372 118.206 152.133 119.21C149.95 120.215 147.767 119.831 146.228 117.969C145.304 116.847 144.52 115.192 144.492 113.744C144.38 98.0239 144.408 82.2743 144.436 66.5543C144.436 63.2153 146.927 60.7036 149.978 60.6741C153.085 60.6741 155.548 63.2448 155.576 66.7021C155.604 74.503 155.576 82.3039 155.576 90.1048Z" fill="white"/>
<path d="M126.863 92.5776C122.429 92.5776 118.865 89.0227 118.865 84.6243C118.865 80.2259 122.429 76.6409 126.833 76.6409C131.237 76.6409 134.801 80.1656 134.831 84.5942C134.831 89.0227 131.296 92.5776 126.893 92.6077" fill="white"/>
<path d="M171.495 87.8176C175.937 87.8176 179.508 90.9628 179.538 94.9756C179.568 98.9342 175.997 102.161 171.585 102.188C167.173 102.188 163.572 99.0155 163.572 95.0298C163.572 91.0441 167.083 87.8447 171.525 87.8176" fill="white"/>
</svg>
