<svg width="360" height="360" viewBox="0 0 360 360" fill="none" xmlns="http://www.w3.org/2000/svg">
<circle cx="180" cy="180" r="180" fill="#D9D9D9"/>
<path d="M132.737 136.737C132.737 134.528 134.528 132.737 136.737 132.737H221.251C223.46 132.737 225.251 134.528 225.251 136.737V221.251C225.251 223.46 223.46 225.251 221.251 225.251H136.737C134.528 225.251 132.737 223.46 132.737 221.251V136.737Z" stroke="#B1B1B3" stroke-width="2"/>
<path d="M132.738 194.413L154.172 172.979C155.054 172.097 156.52 172.229 157.23 173.255L177.761 202.909C178.426 203.87 179.768 204.058 180.672 203.319L205.862 182.71C206.657 182.059 207.816 182.117 208.543 182.843L225.252 199.553" stroke="#B1B1B3" stroke-width="2"/>
<circle cx="199.553" cy="158.436" r="10.2793" fill="#B1B1B3" stroke="#B1B1B3" stroke-linecap="round"/>
</svg>
