<svg width="19" height="25" viewBox="0 0 19 25" fill="none" xmlns="http://www.w3.org/2000/svg">
<path d="M1.02905 1.91012L0.682556 10.3801V23.855L3.10804 25.01L6.57302 23.855L9.345 20.775L11.7705 22.315L13.8495 25.01H17.6609L18.3539 23.855L18.7004 2.29512L17.6609 0.755127H13.503L12.81 1.91012L10.731 4.2201L8.3055 3.45011L5.88002 1.14012L1.72205 0.755127L1.02905 1.91012Z" fill="white"/>
<path d="M10.1918 17.6668V13.2399H11.4984L11.7469 11.4068H10.1918V10.2178C10.1918 9.7176 10.4101 9.22763 11.1043 9.22763H11.8106V7.67206C11.8106 7.67206 11.1679 7.54871 10.5556 7.54871C9.27628 7.54871 8.43959 8.42586 8.43959 10.0123V11.4068H7.01782V13.2399H8.44262V17.6668H10.1948H10.1918Z" fill="#ED1C24"/>
</svg>
