<svg width="19" height="25" viewBox="0 0 19 25" fill="none" xmlns="http://www.w3.org/2000/svg">
<path d="M1.13489 1.91012L0.788391 10.3801V23.855L3.21387 25.01L6.67885 23.855L9.45083 20.775L11.8763 22.315L13.9553 25.01H17.7668L18.4598 23.855L18.8063 2.29512L17.7668 0.755127H13.6088L12.9158 1.91012L10.8368 4.2201L8.41134 3.45011L5.98586 1.14012L1.82788 0.755127L1.13489 1.91012Z" fill="white"/>
<path d="M11.4619 9.78296C11.1849 9.78296 10.9608 10.032 10.9608 10.3398C10.9608 10.6476 11.1849 10.8967 11.4619 10.8967C11.739 10.8967 11.9631 10.6476 11.9631 10.3398C11.9631 10.032 11.739 9.78296 11.4619 9.78296Z" fill="#ED1C24"/>
<path d="M9.22996 10.499C8.06575 10.499 7.11945 11.5505 7.11945 12.844C7.11945 14.1376 8.06575 15.1891 9.22996 15.1891C10.3942 15.1891 11.3405 14.1376 11.3405 12.844C11.3405 11.5505 10.3942 10.499 9.22996 10.499ZM9.22996 14.3451C8.48599 14.3451 7.87898 13.6707 7.87898 12.844C7.87898 12.0174 8.48599 11.343 9.22996 11.343C9.97393 11.343 10.5809 12.0174 10.5809 12.844C10.5809 13.6707 9.97393 14.3451 9.22996 14.3451Z" fill="#ED1C24"/>
<path d="M10.9047 17.6032H7.48363C6.06417 17.6032 4.9093 16.32 4.9093 14.7428V10.9417C4.9093 9.36449 6.06417 8.0813 7.48363 8.0813H10.9047C12.3241 8.0813 13.479 9.36449 13.479 10.9417V14.7428C13.479 16.32 12.3241 17.6032 10.9047 17.6032ZM7.48363 8.98057C6.50931 8.98057 5.71553 9.86254 5.71553 10.9451V14.7463C5.71553 15.8289 6.50931 16.7108 7.48363 16.7108H10.9047C11.879 16.7108 12.6728 15.8289 12.6728 14.7463V10.9451C12.6728 9.86254 11.879 8.98057 10.9047 8.98057H7.48363Z" fill="#ED1C24"/>
</svg>
