<svg width="160" height="61" viewBox="0 0 160 61" fill="none" xmlns="http://www.w3.org/2000/svg">
<g clip-path="url(#clip0_29_6716)">
<path d="M32.6602 17.1803C31.9502 16.4303 31.0302 15.8503 29.9202 15.4403C28.8102 15.0303 27.4502 14.8203 25.8502 14.8203C24.3702 14.8203 22.9502 15.0203 21.5702 15.4203C20.1902 15.8203 18.9302 16.3003 17.7902 16.8503V15.6503C17.7902 15.4103 17.6702 15.2903 17.4302 15.2903H14.0502C13.8102 15.2903 13.6902 15.4103 13.6902 15.6503V29.6703C13.6902 31.3203 13.2602 32.5103 12.4002 33.2503C11.5402 33.9903 10.4202 34.3603 9.04023 34.3603C8.48023 34.3603 7.92023 34.2803 7.33023 34.1203C6.75023 33.9603 6.22023 33.6903 5.75023 33.3003C5.28023 32.9103 4.89023 32.4003 4.59023 31.7603C4.29023 31.1203 4.14023 30.3303 4.14023 29.3803C4.14023 28.2903 4.31023 27.2903 4.67023 26.3803C5.02023 25.4703 5.39023 24.6803 5.78023 24.0003C5.83024 23.9003 5.85023 23.8103 5.83023 23.7303C5.82023 23.6403 5.75023 23.5803 5.63023 23.5303L2.69023 22.3703C2.45023 22.2003 2.27023 22.2203 2.14023 22.4403C1.54023 23.3803 1.03023 24.5103 0.610234 25.8203C0.200234 27.1303 -0.00976562 28.4303 -0.00976562 29.7403C-0.00976562 31.1403 0.210234 32.3603 0.660234 33.4103C1.11023 34.4503 1.73023 35.3203 2.53023 36.0103C3.33023 36.7003 4.27023 37.2103 5.34023 37.5503C6.42023 37.8903 7.60023 38.0603 8.88023 38.0603C11.4202 38.0603 13.5002 37.4303 15.1102 36.1703C16.7202 34.9103 17.6002 33.0103 17.7402 30.4703C18.3002 30.4903 18.8502 30.5103 19.4102 30.5203C19.9702 30.5303 20.5302 30.5403 21.1202 30.5403H27.1502C28.5302 30.5403 29.7002 30.4603 30.6502 30.2903C31.6102 30.1203 32.3802 29.7903 32.9702 29.2903C33.5602 28.8003 34.0002 28.0903 34.2802 27.1703C34.5602 26.2503 34.7002 25.0303 34.7002 23.5003C34.7002 22.1903 34.5402 21.0003 34.2102 19.9203C33.8802 18.8403 33.3602 17.9303 32.6502 17.1803H32.6602ZM30.2402 25.3603C30.1202 25.8403 29.8802 26.2003 29.5302 26.4303C29.1802 26.6603 28.6802 26.8003 28.0402 26.8503C27.4002 26.9003 26.5702 26.9203 25.5502 26.9203H17.7802V20.4103C18.8002 19.9303 19.9602 19.4803 21.2702 19.0703C22.5802 18.6603 23.9102 18.4603 25.2602 18.4603C26.2802 18.4603 27.1102 18.5703 27.7702 18.7903C28.4202 19.0103 28.9502 19.3203 29.3502 19.7303C29.7502 20.1403 30.0302 20.6503 30.1802 21.2503C30.3402 21.8503 30.4202 22.5403 30.4202 23.3103C30.4202 24.2003 30.3602 24.8903 30.2402 25.3703V25.3603Z" fill="#231F20"/>
<path d="M23.7096 11.8402H27.1896C27.4296 11.8402 27.5496 11.7202 27.5496 11.4702V8.3202C27.5496 8.0802 27.4296 7.9502 27.1896 7.9502H23.7096C23.4696 7.9502 23.3496 8.0702 23.3496 8.3202V11.4702C23.3496 11.7102 23.4696 11.8402 23.7096 11.8402Z" fill="#231F20"/>
<path d="M51.1911 16.6303C50.5411 16.0003 49.7511 15.5403 48.8411 15.2503C47.9311 14.9603 46.9311 14.8203 45.8411 14.8203C44.8511 14.8203 43.9011 14.9703 43.0011 15.2703C42.1011 15.5703 41.3111 16.0603 40.6111 16.7203C39.9211 17.3903 39.3711 18.2503 38.9711 19.3003C38.5711 20.3503 38.3711 21.6203 38.3711 23.1003C38.3711 24.4803 38.5311 25.6403 38.8611 26.5803C39.1911 27.5203 39.6511 28.2903 40.2611 28.8903C40.8611 29.4803 41.6111 29.9103 42.4911 30.1603C43.3711 30.4203 44.3811 30.5403 45.5211 30.5403H49.1911C49.1911 31.3403 49.1111 31.9803 48.9511 32.4603C48.7911 32.9403 48.5711 33.3203 48.2811 33.5903C47.9911 33.8603 47.6411 34.0303 47.2311 34.1203C46.8211 34.2103 46.3711 34.2503 45.8911 34.2503H41.6411C41.4011 34.2503 41.2811 34.3703 41.2811 34.6103V37.5203C41.2811 37.7603 41.4011 37.8803 41.6411 37.8803H46.5411C48.7211 37.8803 50.3911 37.3603 51.5411 36.3203C52.6911 35.2803 53.2611 33.6203 53.2611 31.3403V22.8403C53.2611 21.3603 53.0811 20.1203 52.7111 19.1003C52.3511 18.0803 51.8411 17.2603 51.1811 16.6303H51.1911ZM49.2011 26.9103H45.9711C44.8111 26.9103 43.9211 26.6303 43.3011 26.0803C42.6811 25.5303 42.3711 24.4903 42.3711 22.9703C42.3711 21.6003 42.6711 20.5003 43.2811 19.6803C43.8811 18.8603 44.7411 18.4503 45.8611 18.4503C46.9811 18.4503 47.8711 18.8203 48.4011 19.5503C48.9311 20.2803 49.2011 21.3603 49.2011 22.7903V26.9103Z" fill="#231F20"/>
<path d="M88.5198 26.9103H80.6398C80.4498 26.8403 80.1898 26.7003 79.8598 26.4903C79.5298 26.2903 79.2198 26.0003 78.9198 25.6403C78.6198 25.2803 78.3498 24.8403 78.1198 24.3203C77.8898 23.8003 77.7698 23.1803 77.7698 22.4603C77.7698 21.2303 78.0998 20.2503 78.7698 19.5303C79.4398 18.8103 80.3898 18.4503 81.6198 18.4503C83.1198 18.4503 84.3998 19.0303 85.4698 20.1903C85.6398 20.3803 85.8098 20.4003 85.9798 20.2303L87.9398 18.2003C88.1298 18.0603 88.1698 17.8803 88.0498 17.6903C87.4198 16.8703 86.5498 16.1803 85.4398 15.6403C84.3298 15.1003 82.9698 14.8203 81.3698 14.8203C79.8898 14.8203 78.6498 15.0503 77.6498 15.5103C76.6398 15.9703 75.8398 16.5503 75.2198 17.2703C74.5998 17.9803 74.1598 18.7803 73.8898 19.6603C73.6198 20.5403 73.4898 21.4003 73.4898 22.2503C73.4898 23.3103 73.6498 24.2203 73.9598 24.9603C74.2698 25.7103 74.6698 26.3603 75.1598 26.9103H71.6398H67.2898C67.2898 26.9103 67.2698 26.9103 67.2598 26.9103C67.2598 26.9103 67.2598 26.9103 67.2498 26.9103H66.6298C65.7098 26.9103 64.9798 26.7203 64.4298 26.3303C63.8898 25.9403 63.6098 25.3903 63.6098 24.6703V15.8403C63.6098 15.6003 63.4898 15.4803 63.2498 15.4803H59.8998C59.6598 15.4803 59.5398 15.6003 59.5398 15.8403V28.8003C59.5398 29.6703 59.5198 30.4403 59.4798 31.1103C59.4398 31.7703 59.3298 32.3403 59.1498 32.8203C58.9698 33.2903 58.6798 33.6503 58.2998 33.8903C57.9098 34.1303 57.3698 34.2503 56.6698 34.2503H55.8698C55.6298 34.2503 55.5098 34.3703 55.5098 34.6103V37.5103C55.5098 37.7503 55.6298 37.8703 55.8698 37.8703H57.2098C58.4198 37.8703 59.4298 37.7103 60.2498 37.3803C61.0698 37.0503 61.7198 36.5603 62.2098 35.9103C62.6998 35.2503 63.0598 34.4403 63.2698 33.4503C63.4798 32.4703 63.5898 31.3203 63.5898 30.0103V29.3203C63.9998 29.8303 64.4998 30.1603 65.0998 30.3103C65.6898 30.4603 66.3998 30.5303 67.2198 30.5303C67.2198 30.5303 67.2198 30.5303 67.2298 30.5303C67.2298 30.5303 67.2498 30.5303 67.2598 30.5303H71.6198H88.4998C88.7398 30.5303 88.8598 30.4103 88.8598 30.1603V27.2603C88.8598 27.0203 88.7398 26.8903 88.4998 26.8903L88.5198 26.9103Z" fill="#231F20"/>
<path d="M7.0293 46.7602C6.8993 46.5802 6.7193 46.4402 6.4993 46.3302C6.2793 46.2202 5.9893 46.1702 5.6393 46.1702C5.3393 46.1702 5.0793 46.2302 4.8693 46.3402C4.6593 46.4602 4.4893 46.6002 4.3393 46.7802C4.3093 46.8202 4.3193 46.8502 4.3593 46.8902L4.6893 47.1602C4.6893 47.1602 4.7593 47.1902 4.7993 47.1602C4.9093 47.0402 5.0393 46.9402 5.1793 46.8702C5.3193 46.8002 5.4793 46.7602 5.6493 46.7602C5.8493 46.7602 6.0093 46.7902 6.1393 46.8602C6.2693 46.9202 6.3793 47.0102 6.4493 47.1302C6.5293 47.2502 6.5893 47.3902 6.6193 47.5602C6.6593 47.7202 6.6693 47.9002 6.6693 48.1002C6.6693 48.2402 6.6693 48.3502 6.6493 48.4402C6.6293 48.5302 6.5993 48.6102 6.5593 48.6602C6.5093 48.7202 6.4493 48.7502 6.3593 48.7802C6.2693 48.8002 6.1593 48.8102 6.0193 48.8102H3.8693H3.7893C3.5793 48.8102 3.4193 48.7702 3.2893 48.6802C3.1693 48.5902 3.0993 48.4602 3.0993 48.2902V47.5102C3.0993 47.0502 2.9793 46.7002 2.7293 46.4902C2.4893 46.2702 2.1793 46.1602 1.7893 46.1602H0.709297C0.709297 46.1602 0.629297 46.1802 0.629297 46.2402V46.6802C0.629297 46.6802 0.659297 46.7602 0.709297 46.7602H1.5893C2.1693 46.7602 2.4493 47.0202 2.4493 47.5302V48.1402C2.4493 48.2702 2.4493 48.3802 2.4293 48.4702C2.4193 48.5602 2.3793 48.6202 2.3393 48.6802C2.2893 48.7302 2.2293 48.7702 2.1393 48.7902C2.0593 48.8102 1.9393 48.8202 1.7993 48.8202H0.359297C0.309297 48.8202 0.279297 48.8502 0.279297 48.9002V49.3402C0.279297 49.3902 0.309297 49.4202 0.359297 49.4202H2.0393C2.2793 49.4202 2.4793 49.3902 2.6293 49.3302C2.7793 49.2702 2.8993 49.1502 2.9893 48.9902C3.0393 49.1402 3.1393 49.2502 3.2793 49.3202C3.4193 49.3902 3.5693 49.4302 3.7393 49.4302H3.8993H6.2893C6.4793 49.4302 6.6393 49.4102 6.7793 49.3702C6.9193 49.3302 7.0293 49.2602 7.1193 49.1502C7.2093 49.0502 7.2693 48.9202 7.3193 48.7502C7.3593 48.5802 7.3793 48.3702 7.3793 48.1202C7.3793 47.8702 7.3493 47.6302 7.2993 47.4002C7.2493 47.1702 7.1593 46.9602 7.0293 46.7902V46.7602Z" fill="#BCBEC0"/>
<path d="M8.38859 44.25H8.87859C8.87859 44.25 8.95859 44.28 8.95859 44.33V49.33C8.95859 49.33 8.92859 49.41 8.87859 49.41H8.38859C8.38859 49.41 8.30859 49.38 8.30859 49.33V44.33C8.30859 44.33 8.33859 44.25 8.38859 44.25Z" fill="#BCBEC0"/>
<path d="M11.3684 46.1604C11.1684 46.1604 10.9784 46.1904 10.7984 46.2604C10.6184 46.3304 10.4684 46.4304 10.3284 46.5704C10.1984 46.7104 10.0884 46.8904 10.0084 47.1004C9.93844 47.3104 9.89844 47.5704 9.89844 47.8504C9.89844 48.1304 9.92844 48.3804 9.99844 48.5804C10.0684 48.7804 10.1584 48.9304 10.2884 49.0504C10.4184 49.1704 10.5684 49.2604 10.7484 49.3104C10.9284 49.3604 11.1284 49.3904 11.3484 49.3904H12.1584V49.5904C12.1584 49.7304 12.1384 49.8504 12.1084 49.9404C12.0684 50.0304 12.0284 50.1104 11.9584 50.1604C11.8884 50.2104 11.8184 50.2504 11.7384 50.2704C11.6484 50.2904 11.5584 50.3004 11.4584 50.3004H10.5484C10.5484 50.3004 10.4684 50.3304 10.4684 50.3804V50.8204C10.4684 50.8704 10.4984 50.9004 10.5484 50.9004H11.4884C11.6884 50.9004 11.8684 50.8704 12.0284 50.8204C12.1884 50.7704 12.3284 50.6904 12.4384 50.5904C12.5484 50.4804 12.6384 50.3504 12.7084 50.1804C12.7684 50.0104 12.8084 49.8104 12.8084 49.5704V47.8004C12.8084 47.2204 12.6784 46.8004 12.4284 46.5404C12.1784 46.2804 11.8284 46.1504 11.3784 46.1504L11.3684 46.1604ZM12.1684 48.8104H11.3984C11.1184 48.8104 10.8984 48.7404 10.7584 48.6104C10.6184 48.4704 10.5384 48.2304 10.5384 47.8704C10.5384 47.5404 10.6084 47.2704 10.7584 47.0704C10.9084 46.8704 11.1084 46.7704 11.3684 46.7704C11.6484 46.7704 11.8584 46.8604 11.9784 47.0504C12.0984 47.2404 12.1684 47.5004 12.1684 47.8304V48.8204V48.8104Z" fill="#BCBEC0"/>
<path d="M17.7502 46.0601H17.2402C17.196 46.0601 17.1602 46.0959 17.1602 46.1401V46.6901C17.1602 46.7342 17.196 46.7701 17.2402 46.7701H17.7502C17.7943 46.7701 17.8302 46.7342 17.8302 46.6901V46.1401C17.8302 46.0959 17.7943 46.0601 17.7502 46.0601Z" fill="#BCBEC0"/>
<path d="M18.4595 46.9504C18.4095 46.9504 18.3795 46.9704 18.3795 47.0304V49.2404C18.3795 49.6104 18.2795 49.8804 18.0695 50.0504C17.8595 50.2204 17.5995 50.3004 17.2795 50.3004C17.1495 50.3004 17.0095 50.2804 16.8795 50.2504C16.7395 50.2204 16.6195 50.1604 16.4995 50.0704C16.3795 49.9904 16.2895 49.8704 16.2195 49.7304C16.1495 49.5904 16.1095 49.4104 16.1095 49.1904C16.1095 48.9604 16.1495 48.7504 16.2295 48.5404C16.3095 48.3304 16.3995 48.1604 16.4895 48.0204C16.5095 47.9804 16.5095 47.9504 16.4695 47.9204L16.0495 47.6904C15.9995 47.6604 15.9595 47.6604 15.9395 47.6904C15.8095 47.8804 15.6895 48.1104 15.5895 48.3804C15.4895 48.6604 15.4395 48.9404 15.4395 49.2404C15.4395 49.5104 15.4795 49.7404 15.5695 49.9504C15.6595 50.1504 15.7695 50.3304 15.9295 50.4704C16.0795 50.6104 16.2695 50.7204 16.4895 50.7904C16.7095 50.8604 16.9595 50.9004 17.2295 50.9004C17.8095 50.9004 18.2495 50.7504 18.5495 50.4604C18.8495 50.1704 19.0095 49.7604 19.0095 49.2404V47.0204C19.0095 46.9704 18.9895 46.9404 18.9395 46.9404H18.4595V46.9504Z" fill="#BCBEC0"/>
<path d="M27.7393 46.1602C27.2893 46.1602 26.9393 46.2902 26.6793 46.5502C26.4193 46.8102 26.2893 47.2302 26.2893 47.8102V47.9602C26.2893 47.9602 26.2893 48.0602 26.2893 48.1102C26.2893 48.2402 26.2793 48.3502 26.2493 48.4402C26.2193 48.5302 26.1893 48.6002 26.1393 48.6502C26.0893 48.7002 26.0393 48.7402 25.9893 48.7602C25.9293 48.7802 25.8793 48.7902 25.8193 48.7902H25.4393H25.3593C25.1593 48.7902 24.9993 48.7502 24.8793 48.6802C24.7593 48.6002 24.6893 48.4902 24.6793 48.3302C24.6793 48.2902 24.6793 48.2502 24.6793 48.2102C24.6793 48.1702 24.6793 48.1302 24.6793 48.0902V47.6402C24.6793 47.1802 24.5593 46.8302 24.3193 46.6202C24.0793 46.4002 23.7693 46.2902 23.3793 46.2902H22.7093L24.0693 44.6902C24.0693 44.6902 24.0793 44.6102 24.0393 44.5802L23.6793 44.2802C23.6793 44.2802 23.6093 44.2702 23.5793 44.3002L21.9193 46.2502C21.9193 46.2502 21.8993 46.2802 21.8793 46.3002C21.8593 46.3202 21.8493 46.3502 21.8493 46.3702V46.7902C21.8493 46.7902 21.8793 46.8702 21.9293 46.8702H23.1493C23.7293 46.8702 24.0093 47.1302 24.0093 47.6402V48.1102C24.0093 48.2402 24.0093 48.3502 23.9893 48.4402C23.9693 48.5302 23.9393 48.5902 23.8993 48.6502C23.8493 48.7002 23.7893 48.7402 23.6993 48.7602C23.6093 48.7802 23.4993 48.7902 23.3593 48.7902H21.3693H21.0393C20.9093 48.7902 20.8193 48.7602 20.7593 48.7002C20.6993 48.6402 20.6693 48.5402 20.6693 48.3902V44.3002C20.6693 44.3002 20.6393 44.2202 20.5893 44.2202H20.1093C20.0593 44.2202 20.0293 44.2502 20.0293 44.3002V48.4202C20.0293 48.7502 20.0993 48.9902 20.2293 49.1402C20.3693 49.2902 20.5893 49.3702 20.9093 49.3702H21.3593H23.5893C23.8293 49.3702 24.0193 49.3402 24.1693 49.2802C24.3193 49.2202 24.4393 49.1102 24.5293 48.9402C24.5893 49.0802 24.6793 49.1902 24.8193 49.2602C24.9593 49.3302 25.1093 49.3702 25.2793 49.3702H25.4393H25.7593C25.8993 49.3702 26.0493 49.3502 26.2193 49.3102C26.3893 49.2702 26.5193 49.1702 26.6293 49.0002C26.7593 49.1502 26.9093 49.2502 27.0893 49.3202C27.2693 49.3902 27.4793 49.4202 27.7193 49.4202C27.9393 49.4202 28.1393 49.3902 28.3193 49.3302C28.4993 49.2702 28.6493 49.1702 28.7793 49.0402C28.8993 48.9102 28.9993 48.7402 29.0693 48.5302C29.1393 48.3202 29.1693 48.0802 29.1693 47.7902C29.1693 47.2102 29.0393 46.7902 28.7793 46.5302C28.5193 46.2702 28.1693 46.1402 27.7193 46.1402L27.7393 46.1602ZM28.3593 48.6102C28.2293 48.7802 28.0293 48.8602 27.7393 48.8602C27.4493 48.8602 27.2493 48.7802 27.1193 48.6102C26.9893 48.4402 26.9293 48.1802 26.9293 47.8202C26.9293 47.4902 26.9893 47.2302 27.1193 47.0402C27.2493 46.8502 27.4593 46.7602 27.7393 46.7602C28.0193 46.7602 28.2293 46.8502 28.3593 47.0402C28.4893 47.2302 28.5493 47.4902 28.5493 47.8202C28.5493 48.1802 28.4793 48.4502 28.3593 48.6102Z" fill="#BCBEC0"/>
<path d="M34.0295 51.5103H33.5195C33.4753 51.5103 33.4395 51.5461 33.4395 51.5903V52.1303C33.4395 52.1744 33.4753 52.2103 33.5195 52.2103H34.0295C34.0736 52.2103 34.1095 52.1744 34.1095 52.1303V51.5903C34.1095 51.5461 34.0736 51.5103 34.0295 51.5103Z" fill="#BCBEC0"/>
<path d="M34.9494 51.5103H34.4394C34.3952 51.5103 34.3594 51.5461 34.3594 51.5903V52.1303C34.3594 52.1744 34.3952 52.2103 34.4394 52.2103H34.9494C34.9936 52.2103 35.0294 52.1744 35.0294 52.1303V51.5903C35.0294 51.5461 34.9936 51.5103 34.9494 51.5103Z" fill="#BCBEC0"/>
<path d="M39.5295 44.8501H39.0195C38.9753 44.8501 38.9395 44.8859 38.9395 44.9301V45.4701C38.9395 45.5143 38.9753 45.5501 39.0195 45.5501H39.5295C39.5736 45.5501 39.6095 45.5143 39.6095 45.4701V44.9301C39.6095 44.8859 39.5736 44.8501 39.5295 44.8501Z" fill="#BCBEC0"/>
<path d="M39.2785 46.1602C39.0685 46.1602 38.8785 46.1902 38.7085 46.2502C38.5385 46.3102 38.3785 46.4102 38.2485 46.5502C38.1185 46.6802 38.0185 46.8502 37.9385 47.0702C37.8685 47.2802 37.8285 47.5302 37.8285 47.8202C37.8285 48.2302 37.8985 48.5702 38.0485 48.8102H37.1885C37.1885 48.8102 37.1785 48.8102 37.1685 48.8102C37.1585 48.8102 37.1485 48.8102 37.1385 48.8102H36.5285C36.3785 48.8102 36.2385 48.7902 36.0985 48.7602C35.9585 48.7302 35.8185 48.6802 35.6685 48.6302C35.5285 48.5802 35.3785 48.5202 35.2285 48.4602C35.0785 48.4002 34.9185 48.3402 34.7585 48.2702C34.7085 48.2602 34.6785 48.2702 34.6685 48.3202L34.4985 48.7802C34.4985 48.7802 34.4985 48.8602 34.5485 48.8702C34.8085 48.9702 35.0385 49.0502 35.2385 49.1202C35.4385 49.1902 35.5985 49.2602 35.7385 49.3302C35.8685 49.4002 35.9685 49.4702 36.0385 49.5502C36.1085 49.6302 36.1385 49.7302 36.1385 49.8402C36.1385 49.9702 36.0785 50.0702 35.9585 50.1702C35.8385 50.2702 35.6285 50.3102 35.3285 50.3102H33.6485C33.4785 50.3102 33.3285 50.2902 33.1785 50.2502C33.0285 50.2102 32.8985 50.1502 32.7785 50.0702C32.6585 49.9802 32.5685 49.8702 32.4985 49.7302C32.4285 49.5902 32.3985 49.4102 32.3985 49.2002C32.3985 48.9702 32.4385 48.7602 32.5185 48.5502C32.5985 48.3402 32.6885 48.1702 32.7785 48.0302C32.8085 47.9902 32.7985 47.9602 32.7585 47.9302L32.3385 47.7002C32.2885 47.6702 32.2485 47.6702 32.2285 47.7002C32.0985 47.8902 31.9785 48.1202 31.8785 48.3902C31.7785 48.6602 31.7285 48.9502 31.7285 49.2502C31.7285 49.7702 31.8885 50.1702 32.1885 50.4702C32.4985 50.7602 32.9485 50.9102 33.5385 50.9102H35.3085C35.5685 50.9102 35.7885 50.8802 35.9785 50.8202C36.1585 50.7602 36.3085 50.6802 36.4185 50.5902C36.5285 50.4902 36.6085 50.3902 36.6585 50.2702C36.7085 50.1502 36.7285 50.0302 36.7285 49.9102C36.7285 49.8002 36.7085 49.7002 36.6785 49.6002C36.6385 49.5102 36.6085 49.4402 36.5885 49.4002H37.1285C37.1285 49.4002 37.1385 49.4002 37.1485 49.4002C37.1585 49.4002 37.1685 49.4002 37.1785 49.4002H39.2585C39.4785 49.4002 39.6785 49.3702 39.8585 49.3102C40.0385 49.2502 40.1885 49.1602 40.3185 49.0402C40.4385 48.9202 40.5385 48.7502 40.6085 48.5502C40.6785 48.3502 40.7085 48.1002 40.7085 47.8102C40.7085 47.2302 40.5785 46.8102 40.3185 46.5502C40.0585 46.2902 39.7085 46.1602 39.2585 46.1602H39.2785ZM39.8985 48.5802C39.7685 48.7302 39.5685 48.8002 39.2785 48.8002C38.9885 48.8002 38.7885 48.7202 38.6585 48.5602C38.5285 48.4002 38.4685 48.1402 38.4685 47.7602C38.4685 47.4502 38.5385 47.2002 38.6685 47.0202C38.8085 46.8402 39.0085 46.7502 39.2785 46.7502C39.5585 46.7502 39.7685 46.8402 39.8985 47.0302C40.0285 47.2202 40.0885 47.4802 40.0885 47.8102C40.0885 48.1702 40.0285 48.4302 39.8985 48.5802Z" fill="#BCBEC0"/>
<path d="M46.7892 45.29H46.2792C46.235 45.29 46.1992 45.3259 46.1992 45.37V45.92C46.1992 45.9642 46.235 46 46.2792 46H46.7892C46.8334 46 46.8692 45.9642 46.8692 45.92V45.37C46.8692 45.3259 46.8334 45.29 46.7892 45.29Z" fill="#BCBEC0"/>
<path d="M45.8595 45.29H45.3495C45.3053 45.29 45.2695 45.3259 45.2695 45.37V45.92C45.2695 45.9642 45.3053 46 45.3495 46H45.8595C45.9037 46 45.9395 45.9642 45.9395 45.92V45.37C45.9395 45.3259 45.9037 45.29 45.8595 45.29Z" fill="#BCBEC0"/>
<path d="M48.2101 46.3003C48.1601 46.3003 48.1301 46.3303 48.1301 46.3803V48.4103C48.1301 48.5603 48.1001 48.6703 48.0401 48.7303C47.9801 48.7903 47.8901 48.8203 47.7601 48.8203H44.3301C44.2001 48.8203 44.1101 48.7903 44.0501 48.7303C43.9901 48.6703 43.9601 48.5703 43.9601 48.4103V46.8703C43.9601 46.8203 43.9401 46.7903 43.8901 46.7903H43.4101C43.3601 46.7903 43.3301 46.8203 43.3301 46.8703V48.4503C43.3301 48.7803 43.4001 49.0203 43.5301 49.1703C43.6701 49.3203 43.8901 49.4003 44.2101 49.4003H47.8601C48.1901 49.4003 48.4201 49.3203 48.5601 49.1703C48.7001 49.0203 48.7601 48.7703 48.7601 48.4503V46.3803C48.7601 46.3303 48.7301 46.3003 48.6801 46.3003H48.2001H48.2101Z" fill="#BCBEC0"/>
<path d="M53.3587 46.1602C52.9087 46.1602 52.5587 46.2902 52.2987 46.5502C52.0387 46.8102 51.9087 47.2302 51.9087 47.8102V47.9602C51.9087 47.9602 51.9087 48.0602 51.9087 48.1102C51.9087 48.2402 51.8987 48.3502 51.8687 48.4402C51.8387 48.5302 51.8087 48.6002 51.7587 48.6502C51.7087 48.7002 51.6587 48.7402 51.6087 48.7602C51.5487 48.7802 51.4987 48.7902 51.4387 48.7902H51.0588H50.7287C50.5987 48.7902 50.5087 48.7602 50.4487 48.7002C50.3887 48.6402 50.3587 48.5402 50.3587 48.3902V44.3002C50.3587 44.3002 50.3287 44.2202 50.2787 44.2202H49.7987C49.7487 44.2202 49.7188 44.2502 49.7188 44.3002V48.4202C49.7188 48.7502 49.7887 48.9902 49.9187 49.1402C50.0587 49.2902 50.2787 49.3702 50.5987 49.3702H51.0487H51.3787C51.5187 49.3702 51.6687 49.3502 51.8387 49.3102C52.0087 49.2702 52.1387 49.1702 52.2487 49.0002C52.3787 49.1502 52.5287 49.2502 52.7087 49.3202C52.8887 49.3902 53.0987 49.4202 53.3387 49.4202C53.5587 49.4202 53.7587 49.3902 53.9387 49.3302C54.1187 49.2702 54.2688 49.1702 54.3988 49.0402C54.5188 48.9102 54.6187 48.7402 54.6887 48.5302C54.7587 48.3202 54.7887 48.0802 54.7887 47.7902C54.7887 47.2102 54.6588 46.7902 54.3988 46.5302C54.1388 46.2702 53.7887 46.1402 53.3387 46.1402L53.3587 46.1602ZM53.9787 48.6102C53.8487 48.7802 53.6487 48.8602 53.3587 48.8602C53.0687 48.8602 52.8688 48.7802 52.7388 48.6102C52.6088 48.4402 52.5487 48.1802 52.5487 47.8202C52.5487 47.4902 52.6088 47.2302 52.7388 47.0402C52.8688 46.8502 53.0787 46.7602 53.3587 46.7602C53.6387 46.7602 53.8487 46.8502 53.9787 47.0402C54.1087 47.2302 54.1687 47.4902 54.1687 47.8202C54.1687 48.1802 54.0987 48.4502 53.9787 48.6102Z" fill="#BCBEC0"/>
<path d="M66.9689 44.8501H66.4589C66.4147 44.8501 66.3789 44.8859 66.3789 44.9301V45.4701C66.3789 45.5143 66.4147 45.5501 66.4589 45.5501H66.9689C67.0131 45.5501 67.0489 45.5143 67.0489 45.4701V44.9301C67.0489 44.8859 67.0131 44.8501 66.9689 44.8501Z" fill="#BCBEC0"/>
<path d="M70.0198 44.25C69.9698 44.25 69.9398 44.28 69.9398 44.33V48.41C69.9398 48.56 69.9098 48.67 69.8498 48.73C69.7898 48.79 69.6998 48.82 69.5698 48.82H69.0998H69.0198C68.8198 48.82 68.6598 48.78 68.5398 48.7C68.4198 48.62 68.3498 48.5 68.3398 48.35C68.3398 48.31 68.3398 48.27 68.3398 48.23C68.3398 48.19 68.3398 48.15 68.3398 48.1C68.3398 47.85 68.3098 47.61 68.2598 47.38C68.2098 47.15 68.1198 46.94 67.9898 46.77C67.8598 46.59 67.6798 46.45 67.4598 46.34C67.2398 46.23 66.9498 46.18 66.5998 46.18C66.2998 46.18 66.0398 46.24 65.8298 46.35C65.6198 46.47 65.4398 46.61 65.2998 46.79C65.2698 46.83 65.2798 46.86 65.3198 46.9L65.6498 47.17C65.6498 47.17 65.7198 47.2 65.7598 47.17C65.8698 47.05 65.9998 46.95 66.1398 46.88C66.2798 46.81 66.4398 46.77 66.6098 46.77C66.8098 46.77 66.9698 46.8 67.0998 46.87C67.2298 46.93 67.3398 47.02 67.4098 47.14C67.4898 47.26 67.5498 47.4 67.5798 47.56C67.6198 47.72 67.6298 47.91 67.6298 48.1C67.6298 48.24 67.6298 48.35 67.6098 48.44C67.5898 48.53 67.5598 48.61 67.5198 48.66C67.4698 48.72 67.4098 48.75 67.3198 48.78C67.2298 48.8 67.1198 48.81 66.9798 48.81H64.8298H64.7498C64.5398 48.81 64.3798 48.77 64.2498 48.68C64.1298 48.59 64.0698 48.46 64.0698 48.29C64.0698 48.25 64.0698 48.2 64.0698 48.14C64.0698 48.08 64.0698 48.02 64.0698 47.96C64.0698 47.72 64.0398 47.49 63.9898 47.27C63.9298 47.05 63.8398 46.86 63.6998 46.7C63.5598 46.53 63.3698 46.41 63.1398 46.31C62.9098 46.21 62.6098 46.17 62.2598 46.17C61.9398 46.17 61.6298 46.22 61.3298 46.31C61.0298 46.4 60.7498 46.51 60.4998 46.65V46.39C60.4998 46.34 60.4698 46.31 60.4198 46.31H59.9398C59.8898 46.31 59.8598 46.34 59.8598 46.39V48.42C59.8598 48.57 59.8298 48.68 59.7698 48.73C59.7098 48.79 59.6198 48.82 59.4898 48.82H59.0098H58.4898V47.83C58.4898 47.25 58.3598 46.83 58.1098 46.57C57.8598 46.31 57.5098 46.18 57.0598 46.18C56.8598 46.18 56.6798 46.21 56.4998 46.28C56.3198 46.35 56.1698 46.45 56.0298 46.59C55.8998 46.73 55.7898 46.91 55.7098 47.12C55.6298 47.33 55.5898 47.59 55.5898 47.87C55.5898 48.15 55.6198 48.4 55.6898 48.6C55.7498 48.8 55.8498 48.95 55.9798 49.07C56.1098 49.19 56.2598 49.28 56.4398 49.33C56.6198 49.38 56.8198 49.41 57.0398 49.41H57.8498V49.61C57.8498 49.75 57.8298 49.87 57.7998 49.96C57.7598 50.05 57.7198 50.13 57.6498 50.18C57.5798 50.23 57.5098 50.27 57.4298 50.29C57.3398 50.31 57.2498 50.32 57.1498 50.32H56.2398C56.1898 50.32 56.1598 50.35 56.1598 50.4V50.84C56.1598 50.89 56.1898 50.92 56.2398 50.92H57.1798C57.3798 50.92 57.5598 50.89 57.7198 50.84C57.8798 50.79 58.0198 50.71 58.1298 50.61C58.2398 50.5 58.3298 50.37 58.3998 50.2C58.4598 50.03 58.4998 49.83 58.4998 49.59V49.41H59.0198H59.6098C59.8198 49.41 59.9898 49.38 60.1198 49.31C60.1698 49.38 60.2598 49.41 60.3798 49.41H62.9298C63.1798 49.41 63.3798 49.37 63.5398 49.3C63.6998 49.23 63.8198 49.11 63.9098 48.94C63.9698 49.09 64.0598 49.21 64.1998 49.29C64.3398 49.37 64.4998 49.41 64.6698 49.41H64.8298H67.2198C67.4498 49.41 67.6498 49.38 67.7998 49.31C67.9498 49.24 68.0698 49.13 68.1598 48.97C68.2098 49.12 68.3098 49.23 68.4498 49.3C68.5898 49.37 68.7398 49.41 68.9098 49.41H69.0698H69.6598C69.9798 49.41 70.2098 49.33 70.3398 49.18C70.4798 49.03 70.5398 48.78 70.5398 48.46V44.34C70.5398 44.29 70.5098 44.26 70.4698 44.26H69.9898L70.0198 44.25ZM57.8998 48.81H57.1298C56.8498 48.81 56.6298 48.74 56.4898 48.61C56.3498 48.47 56.2698 48.23 56.2698 47.87C56.2698 47.54 56.3398 47.27 56.4898 47.07C56.6398 46.87 56.8398 46.77 57.0898 46.77C57.3698 46.77 57.5798 46.86 57.6998 47.05C57.8198 47.24 57.8898 47.5 57.8898 47.83V48.82L57.8998 48.81ZM63.4098 48.38C63.3898 48.49 63.3598 48.58 63.3098 48.65C63.2598 48.71 63.1898 48.76 63.0998 48.78C63.0098 48.81 62.8898 48.82 62.7498 48.82H60.5098C60.5398 48.7 60.5498 48.58 60.5498 48.46V47.24C60.6598 47.18 60.7798 47.13 60.9198 47.07C61.0598 47.01 61.1998 46.96 61.3398 46.92C61.4898 46.87 61.6398 46.84 61.7998 46.81C61.9598 46.78 62.1098 46.77 62.2598 46.77C62.4898 46.77 62.6798 46.8 62.8298 46.85C62.9798 46.9 63.0998 46.98 63.1898 47.08C63.2798 47.18 63.3498 47.3 63.3798 47.45C63.4198 47.6 63.4398 47.76 63.4398 47.95C63.4398 48.13 63.4398 48.27 63.4098 48.39V48.38Z" fill="#BCBEC0"/>
<path d="M71.7187 44.25H72.2087C72.2087 44.25 72.2887 44.28 72.2887 44.33V49.33C72.2887 49.33 72.2587 49.41 72.2087 49.41H71.7187C71.7187 49.41 71.6387 49.38 71.6387 49.33V44.33C71.6387 44.33 71.6687 44.25 71.7187 44.25Z" fill="#BCBEC0"/>
<path d="M79.9201 50.1001H79.4101C79.3659 50.1001 79.3301 50.1359 79.3301 50.1801V50.7301C79.3301 50.7743 79.3659 50.8101 79.4101 50.8101H79.9201C79.9643 50.8101 80.0001 50.7743 80.0001 50.7301V50.1801C80.0001 50.1359 79.9643 50.1001 79.9201 50.1001Z" fill="#BCBEC0"/>
<path d="M80.8498 50.1001H80.3398C80.2956 50.1001 80.2598 50.1359 80.2598 50.1801V50.7301C80.2598 50.7743 80.2956 50.8101 80.3398 50.8101H80.8498C80.8939 50.8101 80.9298 50.7743 80.9298 50.7301V50.1801C80.9298 50.1359 80.8939 50.1001 80.8498 50.1001Z" fill="#BCBEC0"/>
<path d="M87.8693 50.0903H87.3593C87.3151 50.0903 87.2793 50.1261 87.2793 50.1703V50.7103C87.2793 50.7545 87.3151 50.7903 87.3593 50.7903H87.8693C87.9135 50.7903 87.9493 50.7545 87.9493 50.7103V50.1703C87.9493 50.1261 87.9135 50.0903 87.8693 50.0903Z" fill="#BCBEC0"/>
<path d="M89.1196 47.3704C89.0696 47.1404 88.9796 46.9304 88.8496 46.7604C88.7196 46.5904 88.5396 46.4404 88.3196 46.3304C88.0996 46.2204 87.8096 46.1704 87.4596 46.1704C87.1596 46.1704 86.8996 46.2304 86.6896 46.3404C86.4796 46.4604 86.2996 46.6004 86.1596 46.7804C86.1296 46.8204 86.1396 46.8504 86.1796 46.8904L86.5096 47.1604C86.5096 47.1604 86.5896 47.1904 86.6196 47.1604C86.7296 47.0404 86.8596 46.9404 86.9996 46.8704C87.1396 46.8004 87.2996 46.7604 87.4696 46.7604C87.6696 46.7604 87.8296 46.7904 87.9596 46.8604C88.0896 46.9304 88.1996 47.0104 88.2696 47.1304C88.3496 47.2504 88.4096 47.3904 88.4396 47.5504C88.4796 47.7104 88.4896 47.9004 88.4896 48.0904C88.4896 48.2304 88.4896 48.3404 88.4696 48.4304C88.4496 48.5204 88.4296 48.6004 88.3796 48.6504C88.3296 48.7104 88.2696 48.7404 88.1796 48.7704C88.0996 48.7904 87.9796 48.8004 87.8396 48.8004H85.6996H85.4796C85.3696 48.8004 85.2596 48.7504 85.1596 48.6604C85.0596 48.5704 85.0096 48.3904 85.0096 48.1304C85.0096 48.0804 85.0096 48.0304 85.0196 47.9704C85.0196 47.9204 85.0196 47.8604 85.0196 47.8004C85.0196 47.2204 84.8896 46.8004 84.6296 46.5404C84.3696 46.2804 84.0196 46.1504 83.5696 46.1504C83.1196 46.1504 82.7696 46.2804 82.5096 46.5404C82.2496 46.8004 82.1196 47.2204 82.1196 47.8004V47.9504C82.1196 47.9504 82.1196 48.0504 82.1196 48.1004C82.1196 48.2304 82.1096 48.3404 82.0796 48.4304C82.0496 48.5204 82.0196 48.5904 81.9696 48.6404C81.9196 48.6904 81.8696 48.7304 81.8196 48.7504C81.7596 48.7704 81.7096 48.7804 81.6496 48.7804H81.2696H81.1796C80.9696 48.7804 80.8096 48.7404 80.6796 48.6504C80.5596 48.5604 80.4996 48.4404 80.4996 48.2604V46.3404C80.4996 46.2904 80.4696 46.2604 80.4196 46.2604H79.9396C79.9396 46.2604 79.8596 46.2904 79.8596 46.3404V48.3704C79.8596 48.5204 79.8296 48.6304 79.7696 48.6904C79.7096 48.7504 79.6196 48.7804 79.4896 48.7804H78.9696C78.9696 48.7804 78.9596 48.7804 78.9396 48.7804C78.9296 48.7804 78.9196 48.7804 78.9096 48.7804H77.7996C77.7496 48.7804 77.6996 48.7804 77.6396 48.7704C77.5796 48.7704 77.5296 48.7504 77.4696 48.7404C77.5696 48.6704 77.6596 48.5904 77.7696 48.4904C77.8696 48.3904 77.9596 48.2804 78.0396 48.1604C78.1196 48.0404 78.1796 47.9104 78.2296 47.7704C78.2796 47.6304 78.3096 47.4804 78.3096 47.3104C78.3096 46.9504 78.1796 46.6604 77.9196 46.4504C77.6596 46.2404 77.2596 46.1304 76.7196 46.1304C76.5496 46.1304 76.3796 46.1404 76.2296 46.1704C76.0696 46.1904 75.9296 46.2304 75.7996 46.2704C75.6696 46.3104 75.5596 46.3604 75.4596 46.4004C75.3596 46.4504 75.2796 46.4904 75.2196 46.5204C75.1696 46.5504 75.1396 46.6004 75.1396 46.6704V47.1304C75.1396 47.1304 75.1396 47.1804 75.1596 47.2004C75.1696 47.2204 75.1996 47.2504 75.2496 47.2804C75.3596 47.3604 75.4696 47.4404 75.5796 47.5304C75.6896 47.6104 75.7896 47.7104 75.8796 47.8204C75.9696 47.9304 76.0496 48.0604 76.1196 48.2004C76.1896 48.3504 76.2396 48.5204 76.2796 48.7204C76.1296 48.7504 75.9696 48.7904 75.7996 48.8404C75.6296 48.8904 75.4796 48.9504 75.3396 49.0404C75.1996 49.1304 75.0796 49.2404 74.9896 49.3804C74.8996 49.5204 74.8496 49.7004 74.8496 49.9204C74.8496 50.2704 74.9596 50.5204 75.1696 50.6604C75.3796 50.8104 75.6896 50.8804 76.0996 50.8804H76.8796C76.9296 50.8804 76.9596 50.8504 76.9596 50.8004V50.3604C76.9596 50.3604 76.9296 50.2804 76.8796 50.2804H76.1496C75.8996 50.2804 75.7296 50.2504 75.6396 50.1804C75.5496 50.1204 75.4996 50.0304 75.4996 49.9004C75.4996 49.7704 75.5396 49.6704 75.6296 49.6004C75.7196 49.5204 75.8196 49.4604 75.9596 49.4104C76.0896 49.3604 76.2396 49.3104 76.3996 49.2704C76.5596 49.2304 76.7196 49.1804 76.8596 49.1204C76.9896 49.2104 77.1396 49.2704 77.3096 49.3004C77.4796 49.3404 77.6296 49.3504 77.7796 49.3504H78.9096C78.9096 49.3504 78.9196 49.3504 78.9396 49.3504C78.9496 49.3504 78.9596 49.3504 78.9696 49.3504H79.5996C79.9996 49.3504 80.2596 49.2204 80.3896 48.9604C80.4596 49.0904 80.5496 49.1904 80.6696 49.2604C80.7896 49.3304 80.9296 49.3604 81.0896 49.3604H81.2596H81.5796C81.7196 49.3604 81.8696 49.3404 82.0396 49.3004C82.2096 49.2604 82.3396 49.1604 82.4496 48.9904C82.5796 49.1404 82.7296 49.2404 82.9096 49.3104C83.0896 49.3804 83.2996 49.4104 83.5396 49.4104C83.7796 49.4104 83.9796 49.3804 84.1596 49.3104C84.3396 49.2404 84.4996 49.1404 84.6196 48.9904C84.6696 49.0704 84.7296 49.1404 84.7996 49.1804C84.8696 49.2304 84.9396 49.2604 85.0196 49.2904C85.0996 49.3104 85.1796 49.3304 85.2596 49.3404C85.3396 49.3404 85.4196 49.3504 85.4896 49.3504H85.6496H88.0396C88.2296 49.3504 88.3896 49.3304 88.5296 49.2804C88.6696 49.2404 88.7796 49.1704 88.8696 49.0604C88.9596 48.9604 89.0196 48.8304 89.0696 48.6604C89.1096 48.4904 89.1296 48.2804 89.1296 48.0304C89.1296 47.7804 89.0996 47.5404 89.0496 47.3104L89.1196 47.3704ZM77.1996 48.3104C77.1096 48.3904 77.0196 48.4504 76.9396 48.5004C76.8596 48.1404 76.7196 47.8204 76.5196 47.5604C76.3296 47.3004 76.0996 47.0904 75.8396 46.9504C75.8996 46.9104 76.0096 46.8704 76.1796 46.8304C76.3496 46.7804 76.5496 46.7604 76.7796 46.7604C76.9096 46.7604 77.0296 46.7604 77.1396 46.7904C77.2496 46.8104 77.3496 46.8404 77.4296 46.8904C77.5096 46.9404 77.5796 47.0004 77.6196 47.0804C77.6696 47.1604 77.6896 47.2604 77.6896 47.3904C77.6896 47.5204 77.6596 47.6304 77.6196 47.7404C77.5696 47.8504 77.5096 47.9604 77.4396 48.0504C77.3696 48.1404 77.2796 48.2304 77.1896 48.3104H77.1996ZM84.2196 48.6104C84.0896 48.7804 83.8896 48.8604 83.5996 48.8604C83.3096 48.8604 83.1096 48.7804 82.9796 48.6104C82.8496 48.4404 82.7896 48.1804 82.7896 47.8204C82.7896 47.4904 82.8496 47.2304 82.9796 47.0404C83.1096 46.8504 83.3196 46.7604 83.5996 46.7604C83.8796 46.7604 84.0896 46.8504 84.2196 47.0404C84.3496 47.2304 84.4096 47.4904 84.4096 47.8204C84.4096 48.1804 84.3396 48.4504 84.2196 48.6104Z" fill="#BCBEC0"/>
<path d="M113.73 41.3202C113.04 41.5302 112.32 41.6702 111.67 41.9602C109.45 42.9602 107.52 42.6402 105.8 40.9202C104.28 39.4102 102.77 37.8902 101.26 36.3702C99.1997 34.2902 99.1897 31.5202 101.26 29.4502C110.55 20.1502 119.85 10.8602 129.15 1.56021C131.23 -0.519788 133.98 -0.529788 136.07 1.53021C137.61 3.05021 139.14 4.58021 140.66 6.12021C142.35 7.82021 142.68 9.77021 141.66 11.9402C140.75 13.8602 141.07 15.9202 142.49 17.3602C143.92 18.8102 146.01 19.1402 147.96 18.2202C150.09 17.2102 152.07 17.5402 153.73 19.1902C155.28 20.7302 156.83 22.2702 158.36 23.8202C160.39 25.8802 160.4 28.6502 158.36 30.7002C149.06 40.0202 139.75 49.3302 130.43 58.6302C128.36 60.7002 125.58 60.6802 123.51 58.6102C121.99 57.1002 120.48 55.5902 118.96 54.0702C117.24 52.3502 116.91 50.4202 117.95 48.2002C119.46 44.9802 117.27 41.4202 113.74 41.3102M113.78 37.3802C114.42 37.4702 115.06 37.5102 115.69 37.6502C121.18 38.9202 123.99 44.7302 121.59 49.8402C121.31 50.4502 121.38 50.8602 121.86 51.3202C123.35 52.7702 124.81 54.2502 126.28 55.7202C126.87 56.3102 127.1 56.3202 127.68 55.7502C136.95 46.4902 146.21 37.2202 155.47 27.9602C156.05 27.3802 156.05 27.1502 155.47 26.5602C154.03 25.1202 152.59 23.6802 151.15 22.2402C150.43 21.5202 150.39 21.5102 149.48 21.9302C145.8 23.6302 141.44 22.6002 139 19.3802C136.92 16.6202 136.61 13.6102 137.98 10.4402C138.37 9.53021 138.38 9.48021 137.67 8.76021C136.21 7.30021 134.76 5.85021 133.3 4.39021C132.76 3.86021 132.52 3.85021 131.99 4.38021C122.69 13.6702 113.4 22.9702 104.11 32.2602C103.58 32.7802 103.59 33.0302 104.12 33.5602C105.63 35.0802 107.16 36.5802 108.66 38.1102C109.08 38.5302 109.47 38.5902 109.99 38.3202C111.18 37.7202 112.44 37.4202 113.78 37.3702" fill="#ED1C24"/>
<path d="M131.79 30.0601C131.79 32.7201 131.79 35.3801 131.79 38.0501C131.79 38.9301 131.36 39.5701 130.56 39.9101C129.78 40.2501 129 40.1201 128.45 39.4901C128.12 39.1101 127.84 38.5501 127.83 38.0601C127.79 32.7401 127.8 27.4101 127.81 22.0901C127.81 20.9601 128.7 20.1101 129.79 20.1001C130.9 20.1001 131.78 20.9701 131.79 22.1401C131.8 24.7801 131.79 27.4201 131.79 30.0601Z" fill="#ED1C24"/>
<path d="M122.27 30.8501C120.79 30.8501 119.6 29.6701 119.6 28.2101C119.6 26.7501 120.79 25.5601 122.26 25.5601C123.73 25.5601 124.92 26.7301 124.93 28.2001C124.93 29.6701 123.75 30.8501 122.28 30.8601" fill="#ED1C24"/>
<path d="M137.31 29.3198C138.79 29.3198 139.98 30.4798 139.99 31.9598C140 33.4198 138.81 34.6098 137.34 34.6198C135.87 34.6198 134.67 33.4498 134.67 31.9798C134.67 30.5098 135.84 29.3298 137.32 29.3198" fill="#ED1C24"/>
</g>
<defs>
<clipPath id="clip0_29_6716">
<rect width="159.88" height="60.18" fill="white"/>
</clipPath>
</defs>
</svg>
