<svg width="19" height="25" viewBox="0 0 19 25" fill="none" xmlns="http://www.w3.org/2000/svg">
<path d="M1.24072 1.91012L0.894226 10.3801V23.855L3.31971 25.01L6.78469 23.855L9.55667 20.775L11.9822 22.315L14.0611 25.01H17.8726L18.5656 23.855L18.9121 2.29512L17.8726 0.755127H13.7146L13.0216 1.91012L10.9427 4.2201L8.51717 3.45011L6.09169 1.14012L1.93372 0.755127L1.24072 1.91012Z" fill="white"/>
<path d="M11.3738 11.6868L15.7578 6.1449H14.7179L10.9099 10.9552L7.86651 6.1449H4.35925L8.95743 13.4214L4.35925 19.2348H5.3992L9.42133 14.1529L12.6329 19.2348H16.1402L11.3687 11.6868H11.3738ZM9.95149 13.4879L9.4876 12.7619L5.78153 6.99835H7.37712L10.3695 11.6535L10.8334 12.3795L14.723 18.4257H13.1274L9.95149 13.4879Z" fill="#ED1C24"/>
</svg>
